<svg width="43" height="43" viewBox="0 0 43 43" fill="none" xmlns="http://www.w3.org/2000/svg">
<g clip-path="url(#clip0_44_78)">
<path d="M38.9744 14.8532H37.9066C36.7663 12.2502 34.9597 9.99616 32.6175 8.25482L34.078 3.25514C34.2207 2.76571 34.074 2.238 33.6995 1.89266C33.3242 1.54696 32.7861 1.44273 32.3111 1.62562L24.0041 4.7993C23.007 4.65838 22.0109 4.5873 21.0375 4.5873C14.3259 4.5873 8.68388 7.59959 5.52714 12.309C3.15314 12.1019 2.70374 10.5475 2.65541 10.3426C2.50514 9.62595 1.806 9.16156 1.08533 9.3016C0.357965 9.44341 -0.11701 10.1484 0.0251475 10.8757C0.256727 12.0633 1.41621 14.1231 4.16235 14.7946C3.28824 16.795 2.81009 19.0106 2.81009 21.3702C2.81009 26.0554 4.7846 30.4051 8.27716 33.5206C6.53935 35.3649 6.57198 38.2792 8.37611 40.0828C9.26574 40.9729 10.4494 41.4632 11.7082 41.4632C12.9669 41.4632 14.1501 40.9729 15.0402 40.0828L17.3005 37.8225C20.0921 38.324 23.0682 38.2488 25.7784 37.619L28.2422 40.0833C29.1323 40.9729 30.316 41.4632 31.5742 41.4632C32.8325 41.4632 34.0156 40.9729 34.9063 40.0828C36.7425 38.2456 36.7425 35.2563 34.9058 33.4186L34.4213 32.9347C35.8952 31.4755 37.0778 29.761 37.9018 27.8872H38.974C41.194 27.8872 42.9999 26.0809 42.9999 23.8613V18.8791C43.0001 16.6594 41.1944 14.8532 38.9744 14.8532ZM40.3162 23.8595C40.3162 24.5994 39.7141 25.2015 38.9742 25.2015H36.9979C36.4365 25.2015 35.9346 25.5504 35.7397 26.0769C34.9144 28.3041 33.4902 30.3018 31.6203 31.854C31.33 32.0951 31.1541 32.4477 31.1367 32.8248C31.1192 33.2019 31.2615 33.5691 31.5286 33.8361L33.0078 35.3154C33.7987 36.1062 33.7987 37.3936 33.0083 38.1836C32.6254 38.567 32.1159 38.7781 31.5742 38.7781C31.0326 38.7781 30.5225 38.567 30.1396 38.1841L27.1368 35.1808C26.8818 34.9258 26.5393 34.7877 26.1881 34.7877C26.0691 34.7877 25.9497 34.8034 25.832 34.8355C24.3089 35.255 22.6954 35.4676 21.0376 35.4676C19.714 35.4676 18.4039 35.3284 17.1433 35.0543C16.696 34.9568 16.2316 35.0937 15.9092 35.4171L13.1421 38.1843C12.7592 38.5672 12.2496 38.7783 11.7075 38.7783C11.1658 38.7783 10.6563 38.5672 10.2728 38.1843C9.48197 37.3929 9.48197 36.1064 10.2728 35.3155L11.2224 34.3659C11.4985 34.0904 11.6406 33.7079 11.612 33.3188C11.5838 32.9297 11.387 32.5722 11.0739 32.3401C7.52722 29.7063 5.49327 25.7083 5.49327 21.3696C5.49327 13.3323 12.1757 7.27118 21.0375 7.27118C21.9876 7.27118 22.9658 7.34949 23.9446 7.50417C24.1764 7.54139 24.4138 7.51617 24.6327 7.43221L30.7444 5.09772L29.7719 8.42573C29.6068 8.99118 29.8295 9.59862 30.3216 9.92244C32.8547 11.5923 34.7296 13.9228 35.7432 16.6613C35.9383 17.1878 36.4406 17.5376 37.0014 17.5376H38.9742C39.7141 17.5376 40.3162 18.1397 40.3162 18.8796V23.8595V23.8595Z" fill="white"/>
<path d="M29.3969 19.3934C30.4263 19.3934 31.2608 18.5589 31.2608 17.5294C31.2608 16.5 30.4263 15.6655 29.3969 15.6655C28.3675 15.6655 27.533 16.5 27.533 17.5294C27.533 18.5589 28.3675 19.3934 29.3969 19.3934Z" fill="white"/>
<path d="M24.9613 9.73865H17.1333V12.4225H24.9613V9.73865Z" fill="white"/>
</g>
<defs>
<clipPath id="clip0_44_78">
<rect width="43" height="43" fill="white"/>
</clipPath>
</defs>
</svg>
